<?xml version="1.0" encoding="UTF-8" standalone="no"?>
<svg
   xmlns:dc="http://purl.org/dc/elements/1.1/"
   xmlns:cc="http://creativecommons.org/ns#"
   xmlns:rdf="http://www.w3.org/1999/02/22-rdf-syntax-ns#"
   xmlns:svg="http://www.w3.org/2000/svg"
   xmlns="http://www.w3.org/2000/svg"
   xmlns:sodipodi="http://sodipodi.sourceforge.net/DTD/sodipodi-0.dtd"
   xmlns:inkscape="http://www.inkscape.org/namespaces/inkscape"
   height="100"
   viewBox="0 0 105 100"
   width="105"
   version="1.1"
   id="svg206"
   sodipodi:docname="share-icon.svg"
   inkscape:version="0.92.2 (30a58d1, 2017-08-07)">
  <metadata
     id="metadata212">
    <rdf:RDF>
      <cc:Work
         rdf:about="">
        <dc:format>image/svg+xml</dc:format>
        <dc:type
           rdf:resource="http://purl.org/dc/dcmitype/StillImage" />
        <dc:title></dc:title>
      </cc:Work>
    </rdf:RDF>
  </metadata>
  <defs
     id="defs210">
    <inkscape:perspective
       sodipodi:type="inkscape:persp3d"
       inkscape:vp_x="0 : 50 : 1"
       inkscape:vp_y="0 : 1000 : 0"
       inkscape:vp_z="120 : 50 : 1"
       inkscape:persp3d-origin="60 : 33.333333 : 1"
       id="perspective821" />
  </defs>
  <sodipodi:namedview
     pagecolor="#ffffff"
     bordercolor="#666666"
     borderopacity="1"
     objecttolerance="10"
     gridtolerance="10"
     guidetolerance="10"
     inkscape:pageopacity="0"
     inkscape:pageshadow="2"
     inkscape:window-width="1366"
     inkscape:window-height="707"
     id="namedview208"
     showgrid="false"
     inkscape:zoom="2.2410714"
     inkscape:cx="43.907108"
     inkscape:cy="22.375058"
     inkscape:window-x="0"
     inkscape:window-y="24"
     inkscape:window-maximized="1"
     inkscape:current-layer="svg206" />
  <path
     d="M 88.981146,63.034109 V 79.25826 q 0,7.454346 -5.293215,12.747557 -5.293207,5.293198 -12.747545,5.293198 H 18.822631 q -7.454342,0 -12.7475525,-5.293198 Q 0.78187085,86.712606 0.78187085,79.25826 V 27.140513 q 0,-7.454333 5.29320765,-12.747545 Q 11.368289,9.0997553 18.822631,9.0997553 H 34.79622 q 0.81434,0 1.409434,0.595095 0.595094,0.5950937 0.595094,1.4094317 0,1.691323 -1.628679,2.004526 -4.823399,1.628687 -8.331324,3.758496 -0.626415,0.250568 -1.002264,0.250568 h -7.01585 q -4.134343,0 -7.078494,2.944147 -2.9441525,2.944147 -2.9441525,7.078494 V 79.25826 q 0,4.134348 2.9441525,7.078495 2.944151,2.944159 7.078494,2.944159 h 52.117755 q 4.134336,0 7.07849,-2.944159 2.944151,-2.944147 2.944151,-7.078495 V 65.852973 q 0,-1.190188 1.127547,-1.816595 1.753963,-0.814349 3.38264,-2.317741 1.002269,-1.002269 2.192457,-0.501134 1.315475,0.563782 1.315475,1.816606 z M 103.82718,31.963915 79.772838,56.018262 q -1.127545,1.190189 -2.818866,1.190189 -0.751703,0 -1.566038,-0.313215 -2.443023,-1.064905 -2.443023,-3.695849 V 41.172219 H 62.922269 q -20.233217,0 -27.436993,8.206035 -7.454342,8.581898 -4.635473,29.629451 0.187924,1.440744 -1.252831,2.12981 -0.501131,0.125283 -0.751697,0.125283 -1.002264,0 -1.628681,-0.814349 -0.626415,-0.876974 -1.315472,-1.94189 -0.689057,-1.064894 -2.474339,-4.290932 -1.785284,-3.22605 -3.100756,-6.232844 -1.315473,-3.006783 -2.4117,-7.141131 -1.096226,-4.134336 -1.096226,-7.642265 0,-3.069431 0.219246,-5.700376 0.219244,-2.630943 0.87698,-5.637738 0.657736,-3.006795 1.753964,-5.512455 1.096226,-2.505661 2.944151,-5.105281 1.847925,-2.599632 4.290945,-4.635482 2.44302,-2.03585 5.919624,-3.852445 3.476606,-1.816606 7.79887,-3.038118 4.322266,-1.221512 9.991325,-1.910566 5.669058,-0.689054 12.309063,-0.689054 H 72.944911 V 5.0907037 q 0,-2.6309558 2.443023,-3.6958609 0.814335,-0.3132031 1.566038,-0.3132031 1.628676,0 2.818866,1.1901887 L 103.82718,26.326175 q 1.19019,1.190189 1.19019,2.818864 0,1.628675 -1.19019,2.818876 z"
     id="path204"
     style="fill:#ffa640;fill-opacity:1;stroke-width:0.06264153"
     inkscape:connector-curvature="0" />
</svg>
