<?xml version="1.0" encoding="UTF-8" standalone="no"?>
<svg
   xmlns:dc="http://purl.org/dc/elements/1.1/"
   xmlns:cc="http://creativecommons.org/ns#"
   xmlns:rdf="http://www.w3.org/1999/02/22-rdf-syntax-ns#"
   xmlns:svg="http://www.w3.org/2000/svg"
   xmlns="http://www.w3.org/2000/svg"
   xmlns:sodipodi="http://sodipodi.sourceforge.net/DTD/sodipodi-0.dtd"
   xmlns:inkscape="http://www.inkscape.org/namespaces/inkscape"
   height="1792"
   viewBox="0 0 1792 1792"
   width="1792"
   version="1.1"
   id="svg206"
   sodipodi:docname="share-icon.svg"
   inkscape:version="0.92.2 (30a58d1, 2017-08-07)">
  <metadata
     id="metadata212">
    <rdf:RDF>
      <cc:Work
         rdf:about="">
        <dc:format>image/svg+xml</dc:format>
        <dc:type
           rdf:resource="http://purl.org/dc/dcmitype/StillImage" />
        <dc:title></dc:title>
      </cc:Work>
    </rdf:RDF>
  </metadata>
  <defs
     id="defs210" />
  <sodipodi:namedview
     pagecolor="#ffffff"
     bordercolor="#666666"
     borderopacity="1"
     objecttolerance="10"
     gridtolerance="10"
     guidetolerance="10"
     inkscape:pageopacity="0"
     inkscape:pageshadow="2"
     inkscape:window-width="1366"
     inkscape:window-height="707"
     id="namedview208"
     showgrid="false"
     inkscape:zoom="0.1980846"
     inkscape:cx="1116.2195"
     inkscape:cy="1005.9388"
     inkscape:window-x="0"
     inkscape:window-y="24"
     inkscape:window-maximized="1"
     inkscape:current-layer="svg206" />
  <path
     d="M1472 989v259q0 119-84.5 203.5t-203.5 84.5h-832q-119 0-203.5-84.5t-84.5-203.5v-832q0-119 84.5-203.5t203.5-84.5h255q13 0 22.5 9.5t9.5 22.5q0 27-26 32-77 26-133 60-10 4-16 4h-112q-66 0-113 47t-47 113v832q0 66 47 113t113 47h832q66 0 113-47t47-113v-214q0-19 18-29 28-13 54-37 16-16 35-8 21 9 21 29zm237-496l-384 384q-18 19-45 19-12 0-25-5-39-17-39-59v-192h-160q-323 0-438 131-119 137-74 473 3 23-20 34-8 2-12 2-16 0-26-13-10-14-21-31t-39.5-68.5-49.5-99.5-38.5-114-17.5-122q0-49 3.5-91t14-90 28-88 47-81.5 68.5-74 94.5-61.5 124.5-48.5 159.5-30.5 196.5-11h160v-192q0-42 39-59 13-5 25-5 26 0 45 19l384 384q19 19 19 45t-19 45z"
     id="path204"
     style="fill:#ffa032;fill-opacity:1" />
</svg>
