<?xml version="1.0" encoding="UTF-8" standalone="no"?>
<svg
   xmlns:dc="http://purl.org/dc/elements/1.1/"
   xmlns:cc="http://creativecommons.org/ns#"
   xmlns:rdf="http://www.w3.org/1999/02/22-rdf-syntax-ns#"
   xmlns:svg="http://www.w3.org/2000/svg"
   xmlns="http://www.w3.org/2000/svg"
   xmlns:sodipodi="http://sodipodi.sourceforge.net/DTD/sodipodi-0.dtd"
   xmlns:inkscape="http://www.inkscape.org/namespaces/inkscape"
   enable-background="new 0 0 96 96"
   height="96px"
   id="heart"
   version="1.1"
   viewBox="0 0 96 96"
   width="96px"
   xml:space="preserve"
   sodipodi:docname="heart.svg"
   inkscape:version="0.92.2 (30a58d1, 2017-08-07)"><metadata
     id="metadata9"><rdf:RDF><cc:Work
         rdf:about=""><dc:format>image/svg+xml</dc:format><dc:type
           rdf:resource="http://purl.org/dc/dcmitype/StillImage" /><dc:title></dc:title></cc:Work></rdf:RDF></metadata><defs
     id="defs7" /><sodipodi:namedview
     pagecolor="#ffffff"
     bordercolor="#666666"
     borderopacity="1"
     objecttolerance="10"
     gridtolerance="10"
     guidetolerance="10"
     inkscape:pageopacity="0"
     inkscape:pageshadow="2"
     inkscape:window-width="1366"
     inkscape:window-height="707"
     id="namedview5"
     showgrid="false"
     inkscape:zoom="2.4583333"
     inkscape:cx="107.18644"
     inkscape:cy="48"
     inkscape:window-x="0"
     inkscape:window-y="24"
     inkscape:window-maximized="1"
     inkscape:current-layer="heart" /><path
     d="M87.598,15.029c-9.373-9.373-24.568-9.373-33.94,0L48,20.686l-5.657-5.656c-9.373-9.373-24.569-9.373-33.941,0  c-9.373,9.373-9.373,24.568,0,33.941l5.657,5.654L48,88.566l33.941-33.941l5.656-5.654C96.971,39.598,96.971,24.402,87.598,15.029z   M70.627,54.627L48,77.254L25.374,54.627L14.061,43.314c-6.249-6.248-6.249-16.379,0-22.629c6.249-6.248,16.379-6.248,22.627,0  L48,32l11.314-11.314c6.248-6.248,16.379-6.248,22.627,0c6.248,6.25,6.248,16.379,0,22.629L70.627,54.627z"
     id="path2"
     style="stroke:#d9d9d9;stroke-opacity:0.99528301;opacity:1;fill:#d9d9d9;fill-opacity:1" /></svg>